<svg width="581" height="686" viewBox="0 0 581 686" fill="none" xmlns="http://www.w3.org/2000/svg">
<path d="M196.35 191.75C211.31 193.11 224.23 196.68 235.11 202.46C246.33 208.24 255.17 215.89 261.63 225.41C268.09 234.93 272.17 245.98 273.87 258.56C275.57 270.8 274.72 284.06 271.32 298.34C268.26 311.26 262.65 323.16 254.49 334.04C246.33 344.58 236.3 353.93 224.4 362.09C212.5 369.91 199.07 376.03 184.11 380.45C169.15 384.87 153.51 387.08 137.19 387.08C126.31 387.08 115.09 385.89 103.53 383.51C91.97 381.47 80.75 378.24 69.87 373.82C59.33 369.4 49.47 363.96 40.29 357.5C31.11 350.7 23.63 342.88 17.85 334.04L21.93 330.47C26.35 337.27 32.3 343.9 39.78 350.36C47.6 356.48 56.61 361.75 66.81 366.17C77.35 370.59 89.08 373.99 102 376.37C115.26 378.41 129.54 378.75 144.84 377.39C167.62 375.35 186.32 368.04 200.94 355.46C215.9 342.54 226.27 324.35 232.05 300.89C235.11 288.65 236.3 277.09 235.62 266.21C235.28 254.99 233.07 244.96 228.99 236.12C224.91 227.28 219.13 219.8 211.65 213.68C204.51 207.22 195.84 202.97 185.64 200.93C178.84 199.23 172.38 198.38 166.26 198.38C160.48 198.38 154.7 198.89 148.92 199.91C143.14 200.93 137.19 202.46 131.07 204.5C125.29 206.2 118.83 207.9 111.69 209.6L109.14 205.52C122.06 202.12 134.64 197.87 146.88 192.77C159.12 187.67 170.17 181.55 180.03 174.41C189.89 167.27 198.22 158.77 205.02 148.91C211.82 139.05 216.58 127.66 219.3 114.74C222.02 101.48 222.02 89.58 219.3 79.04C216.58 68.16 211.82 59.15 205.02 52.01C198.22 44.53 189.72 39.09 179.52 35.69C169.66 31.95 158.61 30.59 146.37 31.61C130.39 32.63 116.96 35.35 106.08 39.77C95.54 44.19 86.53 50.31 79.05 58.13C71.91 65.95 65.79 75.81 60.69 87.71C55.93 99.61 51.34 113.38 46.92 129.02V23.45C49.98 35.35 53.72 42.15 58.14 43.85C62.9 45.55 69.19 45.04 77.01 42.32C85.17 39.6 95.2 36.2 107.1 32.12C119.34 27.7 134.47 25.49 152.49 25.49C164.05 25.15 175.95 26.51 188.19 29.57C200.77 32.63 211.99 37.56 221.85 44.36C232.05 50.82 240.21 59.15 246.33 69.35C252.45 79.21 255.17 90.94 254.49 104.54C253.81 115.76 250.75 125.79 245.31 134.63C240.21 143.47 233.41 151.46 224.91 158.6C216.41 165.4 206.38 171.69 194.82 177.47C183.6 182.91 171.7 188.01 159.12 192.77C164.9 192.09 170.85 191.75 176.97 191.75C183.09 191.41 189.55 191.41 196.35 191.75Z" fill="url(#paint0_linear_45_301)"/>
<path d="M384.13 512H267.85V151.94H384.13C408.61 151.94 431.56 156.7 452.98 166.22C474.74 175.4 493.61 188.15 509.59 204.47C525.91 220.79 538.83 240 548.35 262.1C557.87 283.86 562.63 307.32 562.63 332.48C562.63 357.64 557.87 381.1 548.35 402.86C538.83 424.62 525.91 443.66 509.59 459.98C493.61 475.96 474.74 488.71 452.98 498.23C431.56 507.41 408.61 512 384.13 512ZM307.63 507.92H384.13C403.51 507.92 421.7 503.33 438.7 494.15C456.04 484.97 471 472.56 483.58 456.92C496.5 440.94 506.53 422.41 513.67 401.33C521.15 379.91 524.89 356.96 524.89 332.48C524.89 308 521.15 285.05 513.67 263.63C506.53 242.21 496.5 223.51 483.58 207.53C471 191.55 456.04 178.97 438.7 169.79C421.7 160.27 403.51 155.51 384.13 155.51H307.63V507.92Z" fill="url(#paint1_linear_45_301)"/>
<rect x="53" y="241" width="426" height="100" fill="white"/>
<path d="M74.12 305V282.28H65.16V277H89.56V282.28H80.6V305H74.12ZM96.7603 305L109.24 277H115.64L128.16 305H121.36L111.12 280.28H113.68L103.4 305H96.7603ZM103 299L104.72 294.08H119.12L120.88 299H103ZM139.865 305V277H146.345V305H139.865ZM161.79 305V277H168.27V299.72H182.31V305H161.79ZM207.862 305.48C205.649 305.48 203.596 305.12 201.702 304.4C199.836 303.68 198.209 302.667 196.822 301.36C195.462 300.053 194.396 298.52 193.622 296.76C192.876 295 192.502 293.08 192.502 291C192.502 288.92 192.876 287 193.622 285.24C194.396 283.48 195.476 281.947 196.862 280.64C198.249 279.333 199.876 278.32 201.742 277.6C203.609 276.88 205.636 276.52 207.822 276.52C210.036 276.52 212.062 276.88 213.902 277.6C215.769 278.32 217.382 279.333 218.742 280.64C220.129 281.947 221.209 283.48 221.982 285.24C222.756 286.973 223.142 288.893 223.142 291C223.142 293.08 222.756 295.013 221.982 296.8C221.209 298.56 220.129 300.093 218.742 301.4C217.382 302.68 215.769 303.68 213.902 304.4C212.062 305.12 210.049 305.48 207.862 305.48ZM207.822 299.96C209.076 299.96 210.222 299.747 211.262 299.32C212.329 298.893 213.262 298.28 214.062 297.48C214.862 296.68 215.476 295.733 215.902 294.64C216.356 293.547 216.582 292.333 216.582 291C216.582 289.667 216.356 288.453 215.902 287.36C215.476 286.267 214.862 285.32 214.062 284.52C213.289 283.72 212.369 283.107 211.302 282.68C210.236 282.253 209.076 282.04 207.822 282.04C206.569 282.04 205.409 282.253 204.342 282.68C203.302 283.107 202.382 283.72 201.582 284.52C200.782 285.32 200.156 286.267 199.702 287.36C199.276 288.453 199.062 289.667 199.062 291C199.062 292.307 199.276 293.52 199.702 294.64C200.156 295.733 200.769 296.68 201.542 297.48C202.342 298.28 203.276 298.893 204.342 299.32C205.409 299.747 206.569 299.96 207.822 299.96ZM236.812 305V277H248.932C251.439 277 253.599 277.413 255.412 278.24C257.226 279.04 258.626 280.2 259.612 281.72C260.599 283.24 261.092 285.053 261.092 287.16C261.092 289.24 260.599 291.04 259.612 292.56C258.626 294.053 257.226 295.2 255.412 296C253.599 296.8 251.439 297.2 248.932 297.2H240.412L243.292 294.36V305H236.812ZM254.612 305L247.612 294.84H254.532L261.612 305H254.612ZM243.292 295.08L240.412 292.04H248.572C250.572 292.04 252.066 291.613 253.052 290.76C254.039 289.88 254.532 288.68 254.532 287.16C254.532 285.613 254.039 284.413 253.052 283.56C252.066 282.707 250.572 282.28 248.572 282.28H240.412L243.292 279.2V295.08ZM304.354 305.48C302.114 305.48 299.968 305.187 297.914 304.6C295.861 303.987 294.208 303.2 292.954 302.24L295.154 297.36C296.354 298.213 297.768 298.92 299.394 299.48C301.048 300.013 302.714 300.28 304.394 300.28C305.674 300.28 306.701 300.16 307.474 299.92C308.274 299.653 308.861 299.293 309.234 298.84C309.608 298.387 309.794 297.867 309.794 297.28C309.794 296.533 309.501 295.947 308.914 295.52C308.328 295.067 307.554 294.707 306.594 294.44C305.634 294.147 304.568 293.88 303.394 293.64C302.248 293.373 301.088 293.053 299.914 292.68C298.768 292.307 297.714 291.827 296.754 291.24C295.794 290.653 295.008 289.88 294.394 288.92C293.808 287.96 293.514 286.733 293.514 285.24C293.514 283.64 293.941 282.187 294.794 280.88C295.674 279.547 296.981 278.493 298.714 277.72C300.474 276.92 302.674 276.52 305.314 276.52C307.074 276.52 308.808 276.733 310.514 277.16C312.221 277.56 313.728 278.173 315.034 279L313.034 283.92C311.728 283.173 310.421 282.627 309.114 282.28C307.808 281.907 306.528 281.72 305.274 281.72C304.021 281.72 302.994 281.867 302.194 282.16C301.394 282.453 300.821 282.84 300.474 283.32C300.128 283.773 299.954 284.307 299.954 284.92C299.954 285.64 300.248 286.227 300.834 286.68C301.421 287.107 302.194 287.453 303.154 287.72C304.114 287.987 305.168 288.253 306.314 288.52C307.488 288.787 308.648 289.093 309.794 289.44C310.968 289.787 312.034 290.253 312.994 290.84C313.954 291.427 314.728 292.2 315.314 293.16C315.928 294.12 316.234 295.333 316.234 296.8C316.234 298.373 315.794 299.813 314.914 301.12C314.034 302.427 312.714 303.48 310.954 304.28C309.221 305.08 307.021 305.48 304.354 305.48ZM329.462 305V277H341.582C344.089 277 346.249 277.413 348.062 278.24C349.876 279.04 351.276 280.2 352.262 281.72C353.249 283.24 353.742 285.053 353.742 287.16C353.742 289.24 353.249 291.04 352.262 292.56C351.276 294.08 349.876 295.253 348.062 296.08C346.249 296.88 344.089 297.28 341.582 297.28H333.062L335.942 294.36V305H329.462ZM335.942 295.08L333.062 292H341.222C343.222 292 344.716 291.573 345.702 290.72C346.689 289.867 347.182 288.68 347.182 287.16C347.182 285.613 346.689 284.413 345.702 283.56C344.716 282.707 343.222 282.28 341.222 282.28H333.062L335.942 279.2V295.08ZM362.082 305L374.562 277H380.962L393.482 305H386.682L376.442 280.28H379.002L368.722 305H362.082ZM368.322 299L370.042 294.08H384.442L386.202 299H368.322ZM418.197 305.48C416.037 305.48 414.023 305.133 412.157 304.44C410.317 303.72 408.717 302.707 407.357 301.4C405.997 300.093 404.93 298.56 404.157 296.8C403.41 295.04 403.037 293.107 403.037 291C403.037 288.893 403.41 286.96 404.157 285.2C404.93 283.44 405.997 281.907 407.357 280.6C408.743 279.293 410.357 278.293 412.197 277.6C414.037 276.88 416.05 276.52 418.237 276.52C420.663 276.52 422.85 276.947 424.797 277.8C426.77 278.627 428.423 279.853 429.757 281.48L425.597 285.32C424.637 284.227 423.57 283.413 422.397 282.88C421.223 282.32 419.943 282.04 418.557 282.04C417.25 282.04 416.05 282.253 414.957 282.68C413.863 283.107 412.917 283.72 412.117 284.52C411.317 285.32 410.69 286.267 410.237 287.36C409.81 288.453 409.597 289.667 409.597 291C409.597 292.333 409.81 293.547 410.237 294.64C410.69 295.733 411.317 296.68 412.117 297.48C412.917 298.28 413.863 298.893 414.957 299.32C416.05 299.747 417.25 299.96 418.557 299.96C419.943 299.96 421.223 299.693 422.397 299.16C423.57 298.6 424.637 297.76 425.597 296.64L429.757 300.48C428.423 302.107 426.77 303.347 424.797 304.2C422.85 305.053 420.65 305.48 418.197 305.48ZM448.892 288.28H462.372V293.32H448.892V288.28ZM449.372 299.8H464.612V305H442.932V277H464.092V282.2H449.372V299.8Z" fill="#182E6B"/>
<g filter="url(#filter0_f_45_301)">
<ellipse cx="307" cy="620" rx="126" ry="17" fill="black" fill-opacity="0.3"/>
</g>
<defs>
<filter id="filter0_f_45_301" x="132" y="554" width="350" height="132" filterUnits="userSpaceOnUse" color-interpolation-filters="sRGB">
<feFlood flood-opacity="0" result="BackgroundImageFix"/>
<feBlend mode="normal" in="SourceGraphic" in2="BackgroundImageFix" result="shape"/>
<feGaussianBlur stdDeviation="24.5" result="effect1_foregroundBlur_45_301"/>
</filter>
<linearGradient id="paint0_linear_45_301" x1="146.5" y1="0" x2="146.5" y2="510" gradientUnits="userSpaceOnUse">
<stop stop-color="#59C5F0"/>
<stop offset="1" stop-color="#0B0B6C"/>
</linearGradient>
<linearGradient id="paint1_linear_45_301" x1="415.5" y1="129" x2="415.5" y2="639" gradientUnits="userSpaceOnUse">
<stop stop-color="#59C5F0"/>
<stop offset="1" stop-color="#0B0B6C"/>
</linearGradient>
</defs>
</svg>
